<mxfile host="app.diagrams.net" modified="2023-07-27T17:56:09.297Z" agent="Mozilla/5.0 (Windows NT 10.0; Win64; x64) AppleWebKit/537.36 (KHTML, like Gecko) Chrome/114.0.0.0 Safari/537.36" version="21.3.6" etag="O_7UhBJO6z1IgwKrDpEr" type="github">
  <diagram name="Page-1" id="DtSzq3hlJNgcNKBwnIuM">
    <mxGraphModel>
      <root>
        <mxCell id="0" />
        <mxCell id="1" parent="0" />
      </root>
    </mxGraphModel>
  </diagram>
</mxfile>
